# Tiled2Unity generated file. Do not modify by hand.
# Wavefront file for 'StorageUnits_mesh_0003.obj'

# Vertices (Count = 36)
v -46 -28 0
v -47 -28 0
v -47 -27 0
v -46 -27 0
v -46 -29 0
v -47 -29 0
v -47 -28 0
v -46 -28 0
v -46 -30 0
v -47 -30 0
v -47 -29 0
v -46 -29 0
v -46 -31 0
v -47 -31 0
v -47 -30 0
v -46 -30 0
v -46 -32 0
v -47 -32 0
v -47 -31 0
v -46 -31 0
v -46 -33 0
v -47 -33 0
v -47 -32 0
v -46 -32 0
v -46 -43 0
v -47 -43 0
v -47 -42 0
v -46 -42 0
v -46 -47 0
v -47 -47 0
v -47 -46 0
v -46 -46 0
v -46 -52 0
v -47 -52 0
v -47 -51 0
v -46 -51 0

# Texture cooridinates (Count = 6)
vt 0.6 0.6
vt 0.8 0.6
vt 0.8 0.8
vt 0.6 0.8
vt 1 0.6
vt 1 0.8

# Normal
vn 0 0 -1

# Mesh description
g StorageUnits_mesh_0003

# Faces
f 1/1/1 2/2/1 3/3/1 4/4/1
f 5/1/1 6/2/1 7/3/1 8/4/1
f 9/1/1 10/2/1 11/3/1 12/4/1
f 13/1/1 14/2/1 15/3/1 16/4/1
f 17/1/1 18/2/1 19/3/1 20/4/1
f 21/2/1 22/5/1 23/6/1 24/3/1
f 25/2/1 26/5/1 27/6/1 28/3/1
f 29/2/1 30/5/1 31/6/1 32/3/1
f 33/2/1 34/5/1 35/6/1 36/3/1

